<?xml version="1.0" encoding="UTF-8" standalone="no"?>
<svg
   viewBox="0 0 448 512"
   version="1.1"
   id="svg4"
   sodipodi:docname="quote.svg"
   inkscape:version="1.2 (dc2aedaf03, 2022-05-15)"
   xmlns:inkscape="http://www.inkscape.org/namespaces/inkscape"
   xmlns:sodipodi="http://sodipodi.sourceforge.net/DTD/sodipodi-0.dtd"
   xmlns="http://www.w3.org/2000/svg"
   xmlns:svg="http://www.w3.org/2000/svg">
  <defs
     id="defs8" />
  <sodipodi:namedview
     id="namedview6"
     pagecolor="#ffffff"
     bordercolor="#000000"
     borderopacity="0.25"
     inkscape:showpageshadow="2"
     inkscape:pageopacity="0.0"
     inkscape:pagecheckerboard="0"
     inkscape:deskcolor="#d1d1d1"
     showgrid="false"
     inkscape:zoom="1.6191406"
     inkscape:cx="120.43426"
     inkscape:cy="256.30881"
     inkscape:window-width="1920"
     inkscape:window-height="1009"
     inkscape:window-x="1912"
     inkscape:window-y="-8"
     inkscape:window-maximized="1"
     inkscape:current-layer="svg4" />
  <!--! Font Awesome Pro 6.1.1 by @fontawesome - https://fontawesome.com License - https://fontawesome.com/license (Commercial License) Copyright 2022 Fonticons, Inc. -->
  <path
     d="M96 96C42.98 96 0 138.1 0 192s42.98 96 96 96c11.28 0 21.95-2.305 32-5.879V288c0 35.3-28.7 64-64 64c-17.67 0-32 14.33-32 32s14.33 32 32 32c70.58 0 128-57.42 128-128V192C192 138.1 149 96 96 96zM448 192c0-53.02-42.98-96-96-96s-96 42.98-96 96s42.98 96 96 96c11.28 0 21.95-2.305 32-5.879V288c0 35.3-28.7 64-64 64c-17.67 0-32 14.33-32 32s14.33 32 32 32c70.58 0 128-57.42 128-128V192z"
     id="path2" />
  <path
     style="fill:#ffaaaa;stroke-width:0.617612"
     d="m 57.504783,414.98458 c -3.782806,-0.7429 -10.287207,-3.89538 -13.544847,-6.56477 -8.271928,-6.77823 -12.811977,-18.4222 -11.251307,-28.85651 1.515981,-10.13553 8.349497,-19.36704 17.626715,-23.81224 5.883739,-2.8192 6.335517,-2.91834 16.841668,-3.69586 4.507311,-0.33356 9.926853,-1.04576 12.043426,-1.58264 17.202774,-4.36362 31.325382,-14.88289 40.180072,-29.92827 5.55621,-9.44081 8.2174,-18.80272 8.85274,-31.14347 0.37408,-7.26602 0.31955,-7.94415 -0.61008,-7.58742 -3.22307,1.23681 -11.90432,3.58546 -16.19176,4.38057 C 88.269053,290.49313 63.11663,285.07385 42.33309,271.30191 34.760726,266.28418 22.792236,254.57965 17.606357,247.12052 10.443493,236.81777 4.960627,223.93334 2.067706,210.60555 0.3113136,202.51378 0.44591025,180.45202 2.3020099,172.20076 10.898229,133.98637 38.85558,106.38285 77.35645,98.096205 c 8.435999,-1.815703 26.70811,-1.977971 35.66647,-0.316742 39.70486,7.362827 70.43951,38.377967 77.19627,77.900747 1.18101,6.90817 1.2404,9.99611 1.2404,64.49387 0,36.14508 -0.2384,59.16693 -0.64692,62.47179 -2.92619,23.67243 -12.41589,46.32423 -27.161,64.83302 -5.19666,6.5231 -16.64866,17.70258 -22.95808,22.41177 -15.80905,11.79946 -34.6764,20.14956 -53.191734,23.54097 -11.407798,2.08954 -23.95677,2.7392 -29.997073,1.55295 z"
     id="path183" />
  <path
     style="fill:#ffffff;stroke-width:0.617612"
     d="m 312.72631,414.7757 c -7.67315,-1.86123 -15.70532,-7.84421 -19.91332,-14.83298 -8.54455,-14.19107 -4.15668,-32.91646 9.91516,-42.31328 5.08744,-3.39726 10.29875,-4.8246 20.28271,-5.55529 4.58576,-0.33562 10.49516,-1.16525 13.132,-1.84363 28.1415,-7.23994 48.01154,-32.87955 48.01154,-61.95243 v -6.4374 l -7.22348,2.07637 c -11.04499,3.17485 -21.37306,4.2797 -31.68605,3.38963 -14.37974,-1.24106 -23.75867,-3.84093 -36.1622,-10.02431 -39.61573,-19.7491 -60.47982,-64.92792 -49.90185,-108.05681 8.81599,-35.94492 37.25071,-63.14741 74.32943,-71.108344 9.28735,-1.994026 27.67565,-2.018359 36.78782,-0.04868 19.2541,4.161944 34.99298,12.507904 48.34607,25.636804 16.64091,16.3615 26.15677,36.13429 28.50252,59.22471 0.49705,4.89263 0.64222,23.63895 0.48455,62.57054 -0.22236,54.90683 -0.24248,55.67924 -1.64883,63.30519 -2.74635,14.89217 -7.05373,27.31879 -13.72569,39.59808 -20.35696,37.46563 -56.95414,61.96161 -99.49411,66.59544 -7.74494,0.84364 -16.01697,0.75133 -20.03627,-0.22361 z"
     id="path323" />
  <path
     style="fill:#ffffff;stroke-width:0.617612"
     d="m 55.87619,414.17278 c -4.970985,-1.5575 -11.409304,-5.45078 -14.368705,-8.68884 -11.758372,-12.86553 -11.554499,-30.7596 0.490102,-43.0168 6.687357,-6.8054 11.830578,-8.8685 25.311236,-10.15308 10.962828,-1.04465 16.692868,-2.43888 23.895954,-5.81437 6.836584,-3.20373 11.359923,-6.28475 16.803363,-11.44541 10.68329,-10.12833 17.25787,-22.38554 19.54535,-36.43908 1.0318,-6.33905 1.22295,-16.98432 0.30498,-16.98432 -0.33261,0 -3.45927,0.82343 -6.94813,1.82984 -10.59302,3.05572 -17.37579,3.89967 -28.268603,3.51737 C 70.004982,286.18362 50.140723,278.33833 33.325777,263.55152 18.138391,250.19598 8.6856254,234.67437 3.256547,214.17733 1.6423011,208.08287 1.5737292,207.20252 1.5591852,192.38601 1.5423822,175.26811 1.9038894,172.70173 5.9961033,160.88782 17.094705,128.847 43.43675,105.89754 77.805836,98.32644 c 6.909653,-1.522113 29.868624,-1.471487 36.955894,0.08149 37.71777,8.2648 65.99629,36.28857 74.57752,73.9057 0.88839,3.89438 1.11678,9.55017 1.43411,35.51267 0.20758,16.98432 0.2209,45.88854 0.0296,64.2316 l -0.34784,33.35103 -1.67237,7.51889 c -4.13771,18.60301 -10.94477,33.99001 -22.0179,49.77031 -5.238,7.46465 -20.73439,22.95525 -28.26056,28.25 -17.94055,12.62138 -37.09678,20.33185 -57.46399,23.12953 -8.318555,1.14265 -21.659802,1.19308 -25.164096,0.0951 z"
     id="path394" />
  <path
     style="fill:none;stroke-width:0.617612"
     d="M 53.717439,413.01762 C 40.888037,407.61414 33.351025,396.93271 33.351025,384.1544 c 0,-10.38627 5.213916,-19.83753 14.285496,-25.8953 4.865698,-3.24918 8.019991,-4.13923 19.991947,-5.64117 12.446189,-1.56143 17.566677,-2.92702 25.322075,-6.75318 11.060547,-5.45678 20.727227,-14.56464 27.031777,-25.4691 5.69173,-9.84451 7.87876,-17.72133 8.31957,-29.9638 0.27309,-7.58435 0.18773,-8.80097 -0.61749,-8.80097 -0.51391,0 -4.78728,1.03021 -9.49636,2.28936 l -8.56198,2.28936 -13.278653,0.004 C 81.953388,286.2176 76.445991,285.439 65.711365,281.88038 47.953855,275.99366 30.868758,263.48215 19.500687,248.0401 12.790191,238.92476 8.4398512,230.047 4.4858639,217.39928 L 2.2654382,210.29674 1.9942976,195.58598 C 1.6813601,178.60753 2.1851822,173.89764 5.3756649,163.97587 14.989384,134.07912 37.638709,111.19733 67.010856,101.70808 c 11.668141,-3.769623 11.823056,-3.789909 29.027745,-3.801018 14.888929,-0.0096 16.462549,0.09535 21.616409,1.441822 17.83872,4.660466 32.32713,12.911916 45.11318,25.692876 12.66893,12.6639 20.53157,26.25169 25.38848,43.87501 1.47011,5.3343 1.55615,6.66705 2.13328,33.04222 0.33076,15.11604 0.42143,44.71508 0.2015,65.77563 l -0.39988,38.29192 -2.45323,9.82719 c -6.91658,27.70661 -19.29477,48.28016 -40.59476,67.4718 -12.07269,10.87769 -27.70418,19.83571 -43.90245,25.15945 -13.158618,4.32471 -19.908607,5.46464 -33.968633,5.7366 -11.49392,0.22232 -12.199089,0.16739 -15.455058,-1.20396 z"
     id="path396" />
  <path
     style="fill:#ffffff;stroke-width:0.617612"
     d="m 311.86118,414.16836 c -10.92646,-3.42228 -20.48673,-13.78598 -22.49737,-24.38802 -1.81048,-9.54666 1.07213,-19.35083 7.83827,-26.65908 6.53212,-7.05546 11.92445,-9.28921 25.97142,-10.75857 11.36461,-1.18876 17.36315,-2.65019 24.10336,-5.87229 6.95077,-3.32274 11.3219,-6.30911 16.739,-11.43612 10.63345,-10.06403 17.03676,-22.00261 19.50483,-36.36558 0.99038,-5.76351 1.29006,-17.05782 0.45261,-17.05782 -0.26945,0 -2.84026,0.67674 -5.71291,1.50387 -11.03126,3.17625 -15.11322,3.74764 -26.5306,3.71373 -12.46618,-0.037 -19.09277,-1.02799 -28.96728,-4.33187 -45.2343,-15.13479 -72.48965,-60.15643 -64.55985,-106.64292 6.17786,-36.21618 33.03329,-65.65618 69.14091,-75.79501 8.97691,-2.520672 17.18856,-3.347505 29.00937,-2.920961 14.72158,0.531216 24.28382,3.024171 38.30086,9.985341 24.17797,12.00732 42.61892,34.66631 49.26904,60.53848 3.29747,12.82876 3.23059,11.28836 3.1909,73.49578 -0.0405,63.43972 -0.0197,63.00762 -3.72337,77.45831 -3.99187,15.57521 -10.88771,30.29369 -20.63524,44.04386 -4.70107,6.63146 -16.12986,18.70268 -22.80264,24.08441 -17.65691,14.24065 -39.89711,23.93521 -62.60086,27.28789 -7.92431,1.17019 -21.92212,1.2342 -25.49045,0.11657 z"
     id="path1076" />
  <path
     style="fill:#ffffff;stroke-width:0.617612"
     d="M 55.815929,413.82054 C 52.487485,412.81365 45.50559,408.72656 42.998242,406.31728 30.602469,394.4063 29.9698,376.20463 41.518,363.7312 c 6.785228,-7.32886 11.36928,-9.30562 25.801662,-11.12637 14.023217,-1.76912 17.523247,-2.71156 26.248492,-7.06783 6.629176,-3.30975 11.592406,-7.03632 17.116156,-12.85139 11.35426,-11.95307 17.07526,-25.5534 17.89693,-42.54565 0.33956,-7.02211 0.26895,-7.90024 -0.66404,-8.25826 -0.5742,-0.22034 -3.60446,0.30777 -6.73391,1.17358 -11.47876,3.17576 -15.85748,3.69614 -27.923941,3.31858 C 80.972998,285.98942 73.956504,284.8056 64.726311,281.55976 39.679875,272.75207 17.907784,252.17365 8.2792784,228.20748 3.7365052,216.90013 2.6769415,212.26674 2.2166085,201.6959 1.9810239,196.28605 1.9901525,187.53141 2.2368945,182.24113 2.7289722,171.6907 3.5643578,167.89459 7.7530634,157.17487 17.945825,131.08961 39.996239,110.51343 67.319662,101.59075 c 10.726227,-3.502733 12.290483,-3.701001 29.027745,-3.679242 17.400503,0.02262 20.275603,0.478397 32.807363,5.200802 17.24925,6.50012 33.59968,19.02754 43.99347,33.70705 4.51142,6.37163 11.07336,19.37405 13.34374,26.44052 3.89214,12.1141 3.73239,8.73944 3.73239,78.84386 v 63.9228 l -2.09151,8.33775 c -6.23137,24.84118 -16.18496,43.4866 -31.98066,59.90731 -13.08965,13.60758 -21.37687,19.83517 -36.41101,27.36175 -12.02144,6.01833 -24.263461,9.92871 -37.177552,11.87535 -6.331118,0.95434 -23.944991,1.1597 -26.747709,0.31184 z"
     id="path1078" />
</svg>
